<svg width="16" height="17" viewBox="0 0 16 17" fill="none" xmlns="http://www.w3.org/2000/svg">
<path fill-rule="evenodd" clip-rule="evenodd" d="M15.5 6.99742H9.99995V1.49795C9.99995 1.22201 9.77611 0.997314 9.49997 0.997314H6.49989C6.22386 0.997314 5.9999 1.22201 5.9999 1.49795V6.99742H0.499986C0.22383 6.99742 0 7.22213 0 7.49847V10.4977C0 10.7732 0.22383 10.9975 0.499986 10.9975H5.9999V16.4978C5.9999 16.7733 6.22386 16.998 6.49989 16.998H9.49997C9.77611 16.998 9.99995 16.7733 9.99995 16.4978V10.9975H15.5C15.776 10.9975 16 10.7732 16 10.4977V7.49847C16 7.22213 15.776 6.99742 15.5 6.99742Z" fill="white"/>
</svg>
