<svg width="24" height="24" viewBox="0 0 24 24" fill="none" xmlns="http://www.w3.org/2000/svg">
<path d="M9.8125 0.625C4.73838 0.625 0.625 4.73838 0.625 9.8125C0.625 14.8866 4.73838 19 9.8125 19C11.9562 19 13.9276 18.2659 15.4904 17.0365L21.5086 23.0548C21.6102 23.1563 21.7308 23.2369 21.8635 23.2919C21.9962 23.3469 22.1385 23.3751 22.2821 23.3751C22.4258 23.3751 22.568 23.3469 22.7007 23.2919C22.8335 23.2369 22.954 23.1563 23.0556 23.0548C23.1572 22.9532 23.2378 22.8326 23.2928 22.6999C23.3477 22.5671 23.376 22.4249 23.376 22.2812C23.376 22.1376 23.3477 21.9954 23.2928 21.8626C23.2378 21.7299 23.1572 21.6093 23.0556 21.5077L17.0365 15.4895C18.3113 13.8721 19.0032 11.8719 19 9.8125C19 4.73838 14.8866 0.625 9.8125 0.625ZM2.8125 9.8125C2.8125 7.95598 3.55 6.17551 4.86275 4.86275C6.17551 3.55 7.95598 2.8125 9.8125 2.8125C11.669 2.8125 13.4495 3.55 14.7622 4.86275C16.075 6.17551 16.8125 7.95598 16.8125 9.8125C16.8125 11.669 16.075 13.4495 14.7622 14.7622C13.4495 16.075 11.669 16.8125 9.8125 16.8125C7.95598 16.8125 6.17551 16.075 4.86275 14.7622C3.55 13.4495 2.8125 11.669 2.8125 9.8125Z" fill="#BBBBBB"/>
</svg>
